<?xml version="1.0" encoding="UTF-8"?>
<!DOCTYPE svg PUBLIC "-//W3C//DTD SVG 1.1//EN" "http://www.w3.org/Graphics/SVG/1.1/DTD/svg11.dtd">
<svg version="1.1" xmlns="http://www.w3.org/2000/svg" xmlns:xlink="http://www.w3.org/1999/xlink" x="0" y="0" width="16" height="16" viewBox="0, 0, 16, 16">
  <g id="Background">
    <rect x="0" y="0" width="16" height="16" fill="#000000" fill-opacity="0"/>
  </g>
  <g id="connect">
    <path d="M3.933,16 C2.867,16 1.867,15.6 1.133,14.867 C0.4,14.133 0,13.133 0,12.067 C0,11 0.4,10 1.133,9.267 L3.667,6.733 L5,8.067 L6.867,6.2 L7.8,7.133 L5.933,9 L7,10.067 L8.867,8.2 L9.8,9.133 L7.933,11 L9.267,12.333 L6.8,14.867 C6,15.533 5,16 3.933,16 z M3.667,8.6 L2.133,10.133 C1.6,10.667 1.333,11.333 1.333,12 C1.333,12.667 1.6,13.333 2.133,13.867 C3.133,14.867 4.867,14.867 5.867,13.867 L7.4,12.267 L3.667,8.6 z M12.333,9.267 L6.733,3.667 L9.2,1.133 C9.933,0.4 11,-0 12,-0 C13,-0 14,0.4 14.8,1.133 C15.6,1.867 16,2.867 16,3.933 C16,5 15.6,6 14.867,6.733 L12.333,9.267 z M8.667,3.667 L12.333,7.333 L13.867,5.8 C14.4,5.267 14.667,4.667 14.667,3.933 C14.667,3.267 14.4,2.6 13.867,2.067 C12.867,1.067 11.2,1.067 10.133,2.067 L8.667,3.667 z" fill="#868686"/>
  </g>
</svg>
